<svg id="Icons" xmlns="http://www.w3.org/2000/svg" viewBox="0 0 66 66"><defs><style>.cls-1{fill:#d27418;}.cls-2{fill:#f7881c;}.cls-3{opacity:0.15;}.cls-4{fill:#344e5f;}</style></defs><title>bar-chart</title><g id="Bar_Chart" data-name="Bar Chart"><g id="Circle_Shadow" data-name="Circle Shadow"><circle class="cls-1" cx="33" cy="34" r="31"/></g><g id="Circle"><circle class="cls-2" cx="33" cy="32" r="31"/></g><path id="Long_Shadow" data-name="Long Shadow" class="cls-3" d="M63.48,37.65,48.39,22.56l-3,3L36.42,16.6l.33,23.13h-3.2l-9.13-9.13.22,9.13H21l-3.41,7.68L33.17,63A31,31,0,0,0,63.48,37.65Z"/><g id="Bar_Chart-2" data-name="Bar Chart"><path class="cls-4" d="M23,30H19a2,2,0,0,0-2,2V46a2,2,0,0,0,2,2h4a2,2,0,0,0,2-2V32A2,2,0,0,0,23,30ZM35,16H31a2,2,0,0,0-2,2V46a2,2,0,0,0,2,2h4a2,2,0,0,0,2-2V18A2,2,0,0,0,35,16Zm12,6H43a2,2,0,0,0-2,2V46a2,2,0,0,0,2,2h4a2,2,0,0,0,2-2V24A2,2,0,0,0,47,22Z"/></g></g></svg>